<?xml version="1.0" encoding="utf-8"?>
<!-- Generator: Adobe Illustrator 21.0.2, SVG Export Plug-In . SVG Version: 6.00 Build 0)  -->
<svg version="1.1" id="Calque_1" xmlns="http://www.w3.org/2000/svg" xmlns:xlink="http://www.w3.org/1999/xlink" x="0px" y="0px"
	 viewBox="0 0 18 18" style="enable-background:new 0 0 18 18;" xml:space="preserve">
<style type="text/css">
	.st0{fill:url(#SVGID_1_);}
</style>
<g>
	<g>
		<linearGradient id="SVGID_1_" gradientUnits="userSpaceOnUse" x1="9.1572" y1="18.8804" x2="7.1914" y2="0.1771">
			<stop  offset="0" style="stop-color:#544294"/>
			<stop  offset="1" style="stop-color:#E02B2D"/>
		</linearGradient>
		<path class="st0" d="M14.8,13.3L12,12.7l-0.1-0.4c1.9-0.3,2.9-0.9,2.9-0.9c0.1-0.1,0.2-0.2,0.2-0.4s-0.1-0.3-0.2-0.4
			c0,0-1.3-1.1-1.3-4.8c0-3.3-0.8-4.9-2.3-4.9H11C10.5,0.2,10.1,0,9,0C7.6,0,4.4,1.4,4.4,5.7c0,3.7-1.3,4.8-1.3,4.8
			c-0.1,0-0.2,0.2-0.1,0.4c0,0.2,0.1,0.3,0.2,0.4c0,0,1,0.6,2.9,0.9L6,12.7l-2.8,0.7C1.3,13.8,0,15.5,0,17.5c0,0.1,0.1,0.3,0.1,0.4
			S0.4,18,0.5,18h17c0.3,0,0.5-0.2,0.5-0.5C18,15.5,16.7,13.8,14.8,13.3z M1,17c0.2-1.3,1.1-2.4,2.4-2.7l3-0.8
			c0.2,0,0.3-0.2,0.4-0.4l0.3-1.3c0-0.1,0-0.3-0.1-0.4c-0.1-0.1-0.2-0.2-0.3-0.2c-1.2-0.2-2-0.4-2.5-0.6c0.5-0.7,1.2-2.2,1.2-5
			C5.4,1.8,8.3,1,9,1c0.9,0,1,0.1,1.5,0.6c0.1,0.1,0.2,0.1,0.4,0.1h0.4c0.9,0,1.3,1.4,1.3,3.9c0,2.8,0.7,4.3,1.2,5
			c-0.5,0.2-1.4,0.5-2.5,0.6c-0.1,0-0.3,0.1-0.3,0.2c-0.1,0.1-0.1,0.3-0.1,0.4l0.3,1.3c0,0.2,0.2,0.3,0.4,0.4l3,0.8
			c1.3,0.3,2.3,1.4,2.5,2.7H1z"/>
	</g>
</g>
</svg>
